<svg width="22" height="18" viewBox="0 0 22 18" fill="none" xmlns="http://www.w3.org/2000/svg">
<path fill-rule="evenodd" clip-rule="evenodd" d="M16.4 1.2C16.1206 0.827412 15.7582 0.525002 15.3416 0.316718C14.9251 0.108435 14.4657 0 14 0H3C2.20435 0 1.44129 0.316071 0.87868 0.87868C0.316071 1.44129 0 2.20435 0 3V15C0 15.7956 0.316071 16.5587 0.87868 17.1213C1.44129 17.6839 2.20435 18 3 18H14C14.4657 18 14.9251 17.8916 15.3416 17.6833C15.7582 17.475 16.1206 17.1726 16.4 16.8L20.9 10.8C21.2895 10.2807 21.5 9.64911 21.5 9C21.5 8.35089 21.2895 7.71929 20.9 7.2L16.4 1.2Z" fill="#2D61D5"/>
</svg>
