<svg width="60" height="60" viewBox="0 0 60 60" fill="none" xmlns="http://www.w3.org/2000/svg">
<path fill-rule="evenodd" clip-rule="evenodd" d="M30 0C13.4318 0 0 13.4318 0 30C0 46.5682 13.4318 60 30 60C46.5682 60 60 46.5682 60 30C60 13.4318 46.5682 0 30 0ZM23.9809 21.0191C23.4841 20.5047 23.2092 19.8158 23.2154 19.1007C23.2216 18.3856 23.5085 17.7016 24.0141 17.1959C24.5198 16.6903 25.2038 16.4035 25.9189 16.3973C26.634 16.391 27.3229 16.6659 27.8373 17.1627L38.7464 28.0718C39.2576 28.5833 39.5449 29.2768 39.5449 30C39.5449 30.7232 39.2576 31.4167 38.7464 31.9282L27.8373 42.8373C27.3229 43.3341 26.634 43.609 25.9189 43.6027C25.2038 43.5965 24.5198 43.3097 24.0141 42.8041C23.5085 42.2984 23.2216 41.6144 23.2154 40.8993C23.2092 40.1842 23.4841 39.4953 23.9809 38.9809L32.9618 30L23.9809 21.0191Z" fill="#E5E5E5" fill-opacity="0.76"/>
</svg>
